<svg xmlns="http://www.w3.org/2000/svg" version="1.1" xmlns:xlink="http://www.w3.org/1999/xlink" xmlns:svgjs="http://svgjs.dev/svgjs" width="1500" height="393" viewBox="0 0 1500 393"><g transform="matrix(1,0,0,1,-0.9090909090909918,-0.16534791960995676)"><svg viewBox="0 0 396 104" data-background-color="#333b6a" preserveAspectRatio="xMidYMid meet" height="393" width="1500" xmlns="http://www.w3.org/2000/svg" xmlns:xlink="http://www.w3.org/1999/xlink"><g id="tight-bounds" transform="matrix(1,0,0,1,0.2400000000000091,0.0437561924667591)"><svg viewBox="0 0 395.52 103.91248761506648" height="103.91248761506648" width="395.52"><g><svg viewBox="0 0 633.584976726419 166.45780503432493" height="103.91248761506648" width="395.52"><g><rect width="14.936653375572357" height="166.45780503432493" x="184.0271365037986" y="0" fill="#b7feae" opacity="1" stroke-width="0" stroke="transparent" fill-opacity="1" class="rect-yte-0" data-fill-palette-color="primary" rx="1%" id="yte-0" data-palette-color="#b7feae"></rect></g><g transform="matrix(1,0,0,1,238.064976726419,0.41407414187642644)"><svg viewBox="0 0 395.52 165.62965675057208" height="165.62965675057208" width="395.52"><g id="textblocktransform"><svg viewBox="0 0 395.52 165.62965675057208" height="165.62965675057208" width="395.52" id="textblock"><g><svg viewBox="0 0 395.52 165.62965675057208" height="165.62965675057208" width="395.52"><g transform="matrix(1,0,0,1,0,0)"><svg width="395.52" viewBox="2.25 -36.6 87.4 36.6" height="165.62965675057208" data-palette-color="#b7feae"><path d="M6.8 0L2.25 0 15.7-36.6 19.4-36.6 32.25 0 27.85 0 24.7-10.2 10.1-10.2 6.8 0ZM17.5-30.95L11.45-13.9 23.4-13.9 17.5-30.95ZM41.2 0L37.5 0 37.5-30.1Q37.5-33.45 39.15-35.02 40.8-36.6 43.4-36.6L43.4-36.6Q43.5-36.6 43.6-36.6 43.7-36.6 43.8-36.6L43.8-36.6 59.6-35.8 59.6-32.9 43.8-32.9Q42.6-32.9 41.97-32.43 41.35-31.95 41.27-31.48 41.2-31 41.2-30.1L41.2-30.1 41.2-20.1 57.6-19.6 57.6-16.65 41.2-16.15 41.2 0ZM69.59 0L65.84 0 65.84-36.6 69.55-36.6 69.55-20.2 73.65-20.2 85.15-36.6 89.65-36.6 77.05-18.35 89.65 0 85.15 0 73.65-16.5 69.59-16.5 69.59 0Z" opacity="1" transform="matrix(1,0,0,1,0,0)" fill="#b7feae" class="wordmark-text-0" data-fill-palette-color="primary" id="text-0"></path></svg></g></svg></g></svg></g></svg></g><g transform="matrix(1,0,0,1,0,0.41407414187642644)"><svg viewBox="0 0 144.92594965675056 165.62965675057208" height="165.62965675057208" width="144.92594965675056"><g><svg xmlns="http://www.w3.org/2000/svg" xmlns:xlink="http://www.w3.org/1999/xlink" version="1.1" x="0" y="0" viewBox="17 13 63 72" enable-background="new 0 0 100 100" xml:space="preserve" height="165.62965675057208" width="144.92594965675056" class="icon-icon-0" data-fill-palette-color="accent" id="icon-0"><g fill="#cafbff" data-fill-palette-color="accent"><path d="M53 58V39.216C58.24 37.361 62 32.376 62 26.5 62 19.044 55.957 13 48.5 13 41.045 13 35 19.044 35 26.5 35 32.375 38.761 37.36 44 39.215V58H17V85H80V58zM30.5 76A4.5 4.5 0 1 1 30.5 67 4.5 4.5 0 0 1 30.5 76" fill="#cafbff" data-fill-palette-color="accent"></path></g></svg></g></svg></g></svg></g><defs></defs></svg><rect width="395.52" height="103.91248761506648" fill="none" stroke="none" visibility="hidden"></rect></g></svg></g></svg>